<svg width="532" height="622" viewBox="0 0 532 622" fill="none" xmlns="http://www.w3.org/2000/svg">
<path fill-rule="evenodd" clip-rule="evenodd" d="M280.43 439.96L407.415 622H531.734L388.766 417.76C431.39 401.184 463.95 376.024 486.446 342.28C509.534 308.536 521.078 268.28 521.078 221.512C521.078 175.928 510.422 136.56 489.11 103.408C467.798 70.256 437.014 44.8 396.758 27.04C357.094 9.27997 310.326 0.399963 256.454 0.399963H0.710449V98H117V98.08H251.126C301.446 98.08 339.63 108.736 365.678 130.048C391.726 151.36 404.75 181.848 404.75 221.512C404.75 261.176 391.726 291.96 365.678 313.864C339.63 335.176 301.446 345.832 251.126 345.832H117V346H0.710449V622H116.15V440.848H256.454C267.11 440.848 275.102 440.552 280.43 439.96Z" fill="black"/>
</svg>
