<svg width="333" height="87" viewBox="0 0 333 87" fill="none" xmlns="http://www.w3.org/2000/svg">
<path d="M117.067 74.65H118.558V80.257C117.872 80.859 117.06 81.321 116.122 81.643C115.184 81.965 114.197 82.126 113.161 82.126C111.691 82.126 110.368 81.804 109.192 81.16C108.016 80.516 107.092 79.627 106.42 78.493C105.748 77.345 105.412 76.064 105.412 74.65C105.412 73.236 105.748 71.962 106.42 70.828C107.092 69.68 108.016 68.784 109.192 68.14C110.368 67.496 111.698 67.174 113.182 67.174C114.302 67.174 115.331 67.356 116.269 67.72C117.207 68.07 117.998 68.595 118.642 69.295L117.676 70.282C116.514 69.134 115.037 68.56 113.245 68.56C112.055 68.56 110.977 68.826 110.011 69.358C109.059 69.876 108.31 70.604 107.764 71.542C107.218 72.466 106.945 73.502 106.945 74.65C106.945 75.798 107.218 76.834 107.764 77.758C108.31 78.682 109.059 79.41 110.011 79.942C110.963 80.474 112.034 80.74 113.224 80.74C114.736 80.74 116.017 80.362 117.067 79.606V74.65ZM143.936 78.073H135.746L133.982 82H132.365L139.085 67.3H140.618L147.338 82H145.7L143.936 78.073ZM143.369 76.813L139.841 68.917L136.313 76.813H143.369ZM176.796 67.3V82H175.305V70.24L169.53 80.131H168.795L163.02 70.303V82H161.529V67.3H162.81L169.194 78.199L175.515 67.3H176.796ZM203.741 80.656V82H193.346V67.3H203.426V68.644H194.9V73.873H202.502V75.196H194.9V80.656H203.741ZM223.207 82.126C222.115 82.126 221.065 81.951 220.057 81.601C219.063 81.251 218.293 80.789 217.747 80.215L218.356 79.018C218.888 79.55 219.595 79.984 220.477 80.32C221.359 80.642 222.269 80.803 223.207 80.803C224.523 80.803 225.51 80.565 226.168 80.089C226.826 79.599 227.155 78.969 227.155 78.199C227.155 77.611 226.973 77.142 226.609 76.792C226.259 76.442 225.825 76.176 225.307 75.994C224.789 75.798 224.068 75.588 223.144 75.364C222.038 75.084 221.156 74.818 220.498 74.566C219.84 74.3 219.273 73.901 218.797 73.369C218.335 72.837 218.104 72.116 218.104 71.206C218.104 70.464 218.3 69.792 218.692 69.19C219.084 68.574 219.686 68.084 220.498 67.72C221.31 67.356 222.318 67.174 223.522 67.174C224.362 67.174 225.181 67.293 225.979 67.531C226.791 67.755 227.491 68.07 228.079 68.476L227.554 69.715C226.938 69.309 226.28 69.008 225.58 68.812C224.88 68.602 224.194 68.497 223.522 68.497C222.234 68.497 221.261 68.749 220.603 69.253C219.959 69.743 219.637 70.38 219.637 71.164C219.637 71.752 219.812 72.228 220.162 72.592C220.526 72.942 220.974 73.215 221.506 73.411C222.052 73.593 222.78 73.796 223.69 74.02C224.768 74.286 225.636 74.552 226.294 74.818C226.966 75.07 227.533 75.462 227.995 75.994C228.457 76.512 228.688 77.219 228.688 78.115C228.688 78.857 228.485 79.536 228.079 80.152C227.687 80.754 227.078 81.237 226.252 81.601C225.426 81.951 224.411 82.126 223.207 82.126Z" fill="black"/>
<path d="M74.1205 9.51L63.0105 59H49.3755L39.7805 22.741H38.7705L29.1755 59H15.5405L4.43051 9.51H13.5205L21.6005 52.132H23.6205L35.2355 9.51H43.3155L54.9305 52.132H56.9505L65.0305 9.51H74.1205ZM118.537 59H111.467V53.849L105.407 59H90.2568C88.3042 59 86.6208 58.3267 85.2068 56.98C83.8602 55.566 83.1868 53.8827 83.1868 51.93V44.86C83.1868 42.9073 83.8602 41.2577 85.2068 39.911C86.6208 38.497 88.3042 37.79 90.2568 37.79H110.457L104.397 43.749H90.2568V52.94H111.467V29.71H83.1868L89.2468 23.65H111.467C113.42 23.65 115.069 24.357 116.416 25.771C117.83 27.1177 118.537 28.7673 118.537 30.72V59ZM171.017 23.65L154.958 37.689V38.699H161.927C163.88 38.699 165.53 39.406 166.876 40.82C168.29 42.1667 168.997 43.8163 168.997 45.769V59H161.927V43.85H140.717V59H133.647V7.48999L140.717 0.419996V42.941L162.432 23.65H171.017ZM215.986 59H208.916V53.849L202.856 59H187.706C185.753 59 184.07 58.3267 182.656 56.98C181.309 55.566 180.636 53.8827 180.636 51.93V44.86C180.636 42.9073 181.309 41.2577 182.656 39.911C184.07 38.497 185.753 37.79 187.706 37.79H207.906L201.846 43.749H187.706V52.94H208.916V29.71H180.636L186.696 23.65H208.916C210.869 23.65 212.518 24.357 213.865 25.771C215.279 27.1177 215.986 28.7673 215.986 30.72V59ZM260.387 23.65L254.226 29.71H237.157V52.94H258.367V59H237.157C235.204 59 233.521 58.3267 232.107 56.98C230.76 55.566 230.087 53.8827 230.087 51.93V30.72C230.087 28.7673 230.76 27.1177 232.107 25.771C233.521 24.357 235.204 23.65 237.157 23.65H260.387ZM303.828 59H296.758V29.71H275.548V59H268.478V7.48999L275.548 0.419996V28.7L280.598 23.65H296.758C298.711 23.65 300.361 24.357 301.707 25.771C303.121 27.1177 303.828 28.7673 303.828 30.72V59ZM325.038 17.59H317.968V9.51H325.038V17.59ZM325.038 59H317.968V28.7L325.038 21.63V59Z" fill="black"/>
</svg>
